<?xml version="1.0" encoding="UTF-8" standalone="no"?>
<svg
   width="700pt"
   height="700pt"
   version="1.1"
   viewBox="0 0 700 700"
   id="svg168"
   sodipodi:docname="noun-headset-broken-2345772.svg"
   inkscape:version="1.2.1 (9c6d41e410, 2022-07-14)"
   xmlns:inkscape="http://www.inkscape.org/namespaces/inkscape"
   xmlns:sodipodi="http://sodipodi.sourceforge.net/DTD/sodipodi-0.dtd"
   xmlns="http://www.w3.org/2000/svg"
   xmlns:svg="http://www.w3.org/2000/svg">
  <sodipodi:namedview
     id="namedview170"
     pagecolor="#ffffff"
     bordercolor="#000000"
     borderopacity="0.25"
     inkscape:showpageshadow="2"
     inkscape:pageopacity="0.0"
     inkscape:pagecheckerboard="0"
     inkscape:deskcolor="#d1d1d1"
     inkscape:document-units="pt"
     showgrid="false"
     inkscape:zoom="0.84214286"
     inkscape:cx="466.66667"
     inkscape:cy="466.66667"
     inkscape:window-width="2560"
     inkscape:window-height="998"
     inkscape:window-x="0"
     inkscape:window-y="0"
     inkscape:window-maximized="1"
     inkscape:current-layer="g166" />
  <defs
     id="defs146">
    <symbol
       id="g"
       overflow="visible">
      <path
         d="m39.078-2.3281c-2.0117 1.043-4.1094 1.8281-6.2969 2.3594s-4.4648 0.79688-6.8281 0.79688c-7.0859 0-12.699-1.9766-16.844-5.9375-4.1367-3.957-6.2031-9.3281-6.2031-16.109 0-6.7891 2.0664-12.164 6.2031-16.125 4.1445-3.9688 9.7578-5.9531 16.844-5.9531 2.3633 0 4.6406 0.26562 6.8281 0.79688s4.2852 1.3242 6.2969 2.375v8.7969c-2.0312-1.3828-4.0391-2.3984-6.0156-3.0469-1.9688-0.64453-4.0469-0.96875-6.2344-0.96875-3.9062 0-6.9844 1.2578-9.2344 3.7656-2.2422 2.5-3.3594 5.9531-3.3594 10.359 0 4.3867 1.1172 7.8359 3.3594 10.344 2.25 2.5 5.3281 3.75 9.2344 3.75 2.1875 0 4.2656-0.32031 6.2344-0.96875 1.9766-0.64453 3.9844-1.6602 6.0156-3.0469z"
         id="path125" />
    </symbol>
    <symbol
       id="f"
       overflow="visible">
      <path
         d="m16.031-40.953v9.0625h10.516v7.2812h-10.516v13.531c0 1.4805 0.28906 2.4805 0.875 3 0.59375 0.52344 1.7656 0.78125 3.5156 0.78125h5.2344v7.2969h-8.7344c-4.0312 0-6.8867-0.83594-8.5625-2.5156-1.6797-1.6875-2.5156-4.5391-2.5156-8.5625v-13.531h-5.0781v-7.2812h5.0781v-9.0625z"
         id="path128" />
    </symbol>
    <symbol
       id="e"
       overflow="visible">
      <path
         d="m26.594-27.234v-17.078h10.266v44.312h-10.266v-4.6094c-1.3984 1.875-2.9453 3.25-4.6406 4.125-1.6875 0.875-3.6406 1.3125-5.8594 1.3125-3.9297 0-7.1562-1.5625-9.6875-4.6875-2.5234-3.125-3.7812-7.1445-3.7812-12.062 0-4.9141 1.2578-8.9375 3.7812-12.062 2.5312-3.125 5.7578-4.6875 9.6875-4.6875 2.1953 0 4.1445 0.44531 5.8438 1.3281 1.707 0.88672 3.2578 2.2578 4.6562 4.1094zm-6.7188 20.656c2.1875 0 3.8516-0.79688 5-2.3906 1.1445-1.5938 1.7188-3.9102 1.7188-6.9531 0-3.0391-0.57422-5.3594-1.7188-6.9531-1.1484-1.5938-2.8125-2.3906-5-2.3906-2.168 0-3.8242 0.79688-4.9688 2.3906-1.1484 1.5938-1.7188 3.9141-1.7188 6.9531 0 3.043 0.57031 5.3594 1.7188 6.9531 1.1445 1.5938 2.8008 2.3906 4.9688 2.3906z"
         id="path131" />
    </symbol>
    <symbol
       id="d"
       overflow="visible">
      <path
         d="m21.875-6.5781c2.1758 0 3.8359-0.79688 4.9844-2.3906 1.1562-1.5938 1.7344-3.9102 1.7344-6.9531 0-3.0391-0.57812-5.3594-1.7344-6.9531-1.1484-1.5938-2.8086-2.3906-4.9844-2.3906-2.1875 0-3.8672 0.80469-5.0312 2.4062-1.168 1.6055-1.75 3.918-1.75 6.9375 0 3.0234 0.58203 5.3359 1.75 6.9375 1.1641 1.6055 2.8438 2.4062 5.0312 2.4062zm-6.7812-20.656c1.4062-1.8516 2.9609-3.2227 4.6719-4.1094 1.707-0.88281 3.6719-1.3281 5.8906-1.3281 3.9375 0 7.1641 1.5625 9.6875 4.6875 2.5195 3.125 3.7812 7.1484 3.7812 12.062 0 4.918-1.2617 8.9375-3.7812 12.062-2.5234 3.125-5.75 4.6875-9.6875 4.6875-2.2188 0-4.1836-0.44531-5.8906-1.3281-1.7109-0.88281-3.2656-2.2539-4.6719-4.1094v4.6094h-10.188v-44.312h10.188z"
         id="path134" />
    </symbol>
    <symbol
       id="c"
       overflow="visible">
      <path
         d="m5.3594-42.516h13.953l9.6875 22.75 9.7344-22.75h13.922v42.516h-10.359v-31.094l-9.7969 22.922h-6.9531l-9.7969-22.922v31.094h-10.391z"
         id="path137" />
    </symbol>
    <symbol
       id="b"
       overflow="visible">
      <path
         d="m4.9062-44.312h10.188v24.125l11.734-11.703h11.844l-15.578 14.625 16.812 17.266h-12.359l-12.453-13.297v13.297h-10.188z"
         id="path140" />
    </symbol>
    <symbol
       id="a"
       overflow="visible">
      <path
         d="m5.3594-42.516h10.953v42.516h-10.953z"
         id="path143" />
    </symbol>
  </defs>
  <g
     id="g166">
    <g
       id="g332"
       transform="translate(0,58.339785)">
      <path
         d="m 546.21,270.62 c -1.8789,-0.76953 -3.9883,-1.4102 -6.1016,-1.8906 -0.82812,-0.1875 -1.6797,-0.28125 -2.5312,-0.28125 l -1.8555,-0.0117 c -9.043,-99.016 -88.539,-175.109999 -185.72,-175.109999 -97.266,0 -176.74,76.077999 -185.73,175.109999 l -1.8555,0.0117 c -0.85156,0 -1.6914,0.10547 -2.5195,0.28125 -2.125,0.47656 -4.2109,1.1211 -5.4258,1.6328 -11.41,3.8867 -21.688,10.383 -29.645,18.715 -19.168,19.715 -24.977,47.578 -15.121,72.812 3.5234,8.7617 8.6211,16.672 15.25,23.578 13.09,13.418 31.57,21.688 50.539,22.703 1.5312,0.11328 3.082,0.16016 4.6211,0.16016 7.1758,0 14.434,-1.0859 21.57,-3.2188 4.957,-1.4922 8.3398,-6.0664 8.3086,-11.234 l -0.25781,-112.2 c 0.24609,-2.0078 -0.0352,-4.0703 -0.85156,-5.9727 -1.3633,-3.1836 -4.0586,-5.5898 -7.3516,-6.5781 -0.92188,-0.30469 -2.1836,-0.61719 -3,-0.71094 -0.46484,-0.0586 -0.73438,-0.14062 -1.3867,-0.082 l -9.4961,0.0351 c 8.8789,-85.973 77.992,-151.69999 162.36,-151.69999 84.293,0 153.41,65.742 162.34,151.69999 l -9.4961,-0.0391 c -0.44141,0 -0.91016,0.0234 -1.3516,0.082 -0.80469,0.0937 -2.1016,0.39844 -3.0234,0.71094 -3.2188,0.98047 -5.8555,3.3711 -7.2461,6.5 -0.75781,1.7148 -1.0859,3.5938 -0.96875,5.4375 l -0.25391,112.82 c -0.0234,5.168 3.3594,9.7422 8.3086,11.234 7.1367,2.1367 14.395,3.2188 21.582,3.2188 1.5508,0 3.1016,-0.0469 4.457,-0.14062 19.133,-1.0273 37.625,-9.2969 50.797,-22.797 6.5469,-6.8477 11.645,-14.758 15.203,-23.602 9.8125,-25.117 4.0117,-52.988 -15.086,-72.637 -8.0508,-8.4219 -18.34,-14.918 -29.051,-18.535 z M 176.9,384.88 c -13.359,-0.71094 -26.191,-6.4297 -35.164,-15.621 -4.4805,-4.6797 -7.9688,-10.078 -10.336,-15.961 -6.4414,-16.508 -2.5547,-34.871 10.23,-48.031 5.4492,-5.7031 12.484,-10.137 21.023,-13.066 0.39844,-0.16406 0.81641,-0.29297 1.25,-0.42188 l 22.516,-0.082 0.1875,92.867 c -3.2109,0.42188 -6.0781,0.57422 -9.707,0.31641 z m 391.73,-31.699 c -2.4023,5.9961 -5.8906,11.398 -10.289,15.996 -9.043,9.2734 -21.898,14.992 -35.41,15.715 -3.1484,0.21094 -6.3477,0.0937 -9.5547,-0.32812 l 0.1875,-92.867 22.516,0.082 c 0.52344,0.15234 1.1445,0.36328 1.9492,0.6875 7.8633,2.6719 14.887,7.082 20.418,12.879 12.691,13.082 16.59,31.445 10.184,47.836 z"
         id="path148" />
      <path
         d="m 350,303.33 c -24.922,0 -48.359,9.707 -65.988,27.348 -36.387,36.387 -36.387,95.586 0,131.98 17.629,17.629 41.066,27.336 65.988,27.336 24.922,0 48.359,-9.707 65.988,-27.348 36.387,-36.387 36.387,-95.586 0,-131.98 C 398.359,313.037 374.922,303.33 350,303.33 Z m -49.488,43.844 c 13.227,-13.23 30.797,-20.508 49.488,-20.508 14.734,0 28.746,4.5977 40.52,12.984 l -97.43,97.43 c -19.402,-27.312 -17.043,-65.453 7.4219,-89.906 z m 98.977,98.98 c -13.227,13.23 -30.797,20.512 -49.488,20.512 -14.734,0 -28.746,-4.5977 -40.52,-12.984 l 97.43,-97.43 c 19.391,27.312 17.043,65.449 -7.4219,89.902 z"
         id="path150" />
    </g>
  </g>
</svg>
